<mxfile host="app.diagrams.net" modified="2024-07-23T08:15:47.448Z" agent="Mozilla/5.0 (Macintosh; Intel Mac OS X 10_15_7) AppleWebKit/537.36 (KHTML, like Gecko) Chrome/126.0.0.0 Safari/537.36" etag="TVZwraIDHwhPmDV5LsEx" version="24.6.4" type="github">
  <diagram name="第 1 页" id="Ekg-3o6nj7kemqUT62nF">
    <mxGraphModel dx="1010" dy="1730" grid="1" gridSize="10" guides="1" tooltips="1" connect="1" arrows="1" fold="1" page="1" pageScale="1" pageWidth="827" pageHeight="1169" math="0" shadow="0">
      <root>
        <mxCell id="0" />
        <mxCell id="1" parent="0" />
        <mxCell id="jEDZygAeWDUvjjWKRz_K-1" value="wedata请求" style="shape=parallelogram;perimeter=parallelogramPerimeter;whiteSpace=wrap;html=1;fixedSize=1;" parent="1" vertex="1">
          <mxGeometry x="240" y="-10" width="120" height="40" as="geometry" />
        </mxCell>
        <mxCell id="jEDZygAeWDUvjjWKRz_K-6" style="edgeStyle=orthogonalEdgeStyle;rounded=0;orthogonalLoop=1;jettySize=auto;html=1;exitX=0.5;exitY=1;exitDx=0;exitDy=0;" parent="1" source="jEDZygAeWDUvjjWKRz_K-2" target="jEDZygAeWDUvjjWKRz_K-5" edge="1">
          <mxGeometry relative="1" as="geometry" />
        </mxCell>
        <mxCell id="jEDZygAeWDUvjjWKRz_K-2" value="supersql&amp;nbsp; sdk解析逻辑执行计划" style="rounded=0;whiteSpace=wrap;html=1;" parent="1" vertex="1">
          <mxGeometry x="250" y="90" width="120" height="60" as="geometry" />
        </mxCell>
        <mxCell id="jEDZygAeWDUvjjWKRz_K-7" style="edgeStyle=orthogonalEdgeStyle;rounded=0;orthogonalLoop=1;jettySize=auto;html=1;exitX=0.5;exitY=1;exitDx=0;exitDy=0;" parent="1" source="9Qhba7HmXpPYOLtZiQJx-2" edge="1">
          <mxGeometry relative="1" as="geometry">
            <mxPoint x="320" y="520" as="targetPoint" />
          </mxGeometry>
        </mxCell>
        <mxCell id="jEDZygAeWDUvjjWKRz_K-35" style="edgeStyle=orthogonalEdgeStyle;rounded=0;orthogonalLoop=1;jettySize=auto;html=1;" parent="1" source="jEDZygAeWDUvjjWKRz_K-5" target="jEDZygAeWDUvjjWKRz_K-23" edge="1">
          <mxGeometry relative="1" as="geometry" />
        </mxCell>
        <mxCell id="9Qhba7HmXpPYOLtZiQJx-13" value="否" style="edgeLabel;html=1;align=center;verticalAlign=middle;resizable=0;points=[];" vertex="1" connectable="0" parent="jEDZygAeWDUvjjWKRz_K-35">
          <mxGeometry x="-0.8" relative="1" as="geometry">
            <mxPoint y="1" as="offset" />
          </mxGeometry>
        </mxCell>
        <mxCell id="9Qhba7HmXpPYOLtZiQJx-11" style="edgeStyle=orthogonalEdgeStyle;rounded=0;orthogonalLoop=1;jettySize=auto;html=1;exitX=0.5;exitY=1;exitDx=0;exitDy=0;entryX=0.5;entryY=0;entryDx=0;entryDy=0;" edge="1" parent="1" source="jEDZygAeWDUvjjWKRz_K-5" target="9Qhba7HmXpPYOLtZiQJx-1">
          <mxGeometry relative="1" as="geometry" />
        </mxCell>
        <mxCell id="jEDZygAeWDUvjjWKRz_K-5" value="是否成功" style="rhombus;whiteSpace=wrap;html=1;" parent="1" vertex="1">
          <mxGeometry x="270" y="200" width="80" height="80" as="geometry" />
        </mxCell>
        <mxCell id="jEDZygAeWDUvjjWKRz_K-28" style="edgeStyle=orthogonalEdgeStyle;rounded=0;orthogonalLoop=1;jettySize=auto;html=1;exitX=0.5;exitY=1;exitDx=0;exitDy=0;entryX=0.5;entryY=0;entryDx=0;entryDy=0;" parent="1" source="jEDZygAeWDUvjjWKRz_K-9" target="jEDZygAeWDUvjjWKRz_K-16" edge="1">
          <mxGeometry relative="1" as="geometry" />
        </mxCell>
        <mxCell id="jEDZygAeWDUvjjWKRz_K-36" style="edgeStyle=orthogonalEdgeStyle;rounded=0;orthogonalLoop=1;jettySize=auto;html=1;exitX=1;exitY=0.5;exitDx=0;exitDy=0;" parent="1" source="jEDZygAeWDUvjjWKRz_K-9" edge="1">
          <mxGeometry relative="1" as="geometry">
            <mxPoint x="670" y="580" as="targetPoint" />
          </mxGeometry>
        </mxCell>
        <mxCell id="jEDZygAeWDUvjjWKRz_K-37" value="失败" style="edgeLabel;html=1;align=center;verticalAlign=middle;resizable=0;points=[];" parent="jEDZygAeWDUvjjWKRz_K-36" vertex="1" connectable="0">
          <mxGeometry x="-0.0048" y="3" relative="1" as="geometry">
            <mxPoint as="offset" />
          </mxGeometry>
        </mxCell>
        <mxCell id="jEDZygAeWDUvjjWKRz_K-9" value="血缘解析" style="rounded=0;whiteSpace=wrap;html=1;" parent="1" vertex="1">
          <mxGeometry x="260" y="525" width="120" height="60" as="geometry" />
        </mxCell>
        <mxCell id="jEDZygAeWDUvjjWKRz_K-15" value="血缘数据" style="ellipse;whiteSpace=wrap;html=1;aspect=fixed;" parent="1" vertex="1">
          <mxGeometry x="280" y="1060" width="80" height="80" as="geometry" />
        </mxCell>
        <mxCell id="jEDZygAeWDUvjjWKRz_K-29" style="edgeStyle=orthogonalEdgeStyle;rounded=0;orthogonalLoop=1;jettySize=auto;html=1;exitX=0.5;exitY=1;exitDx=0;exitDy=0;entryX=0.5;entryY=0;entryDx=0;entryDy=0;" parent="1" source="jEDZygAeWDUvjjWKRz_K-16" target="jEDZygAeWDUvjjWKRz_K-17" edge="1">
          <mxGeometry relative="1" as="geometry" />
        </mxCell>
        <mxCell id="jEDZygAeWDUvjjWKRz_K-16" value="提取库表" style="shape=process;whiteSpace=wrap;html=1;backgroundOutline=1;" parent="1" vertex="1">
          <mxGeometry x="260" y="610" width="120" height="60" as="geometry" />
        </mxCell>
        <mxCell id="jEDZygAeWDUvjjWKRz_K-30" style="edgeStyle=orthogonalEdgeStyle;rounded=0;orthogonalLoop=1;jettySize=auto;html=1;exitX=0.5;exitY=1;exitDx=0;exitDy=0;" parent="1" source="jEDZygAeWDUvjjWKRz_K-17" target="9Qhba7HmXpPYOLtZiQJx-7" edge="1">
          <mxGeometry relative="1" as="geometry">
            <mxPoint x="320" y="800" as="targetPoint" />
          </mxGeometry>
        </mxCell>
        <mxCell id="jEDZygAeWDUvjjWKRz_K-17" value="查询库表元数据" style="shape=process;whiteSpace=wrap;html=1;backgroundOutline=1;" parent="1" vertex="1">
          <mxGeometry x="260" y="710" width="120" height="60" as="geometry" />
        </mxCell>
        <mxCell id="jEDZygAeWDUvjjWKRz_K-31" style="edgeStyle=orthogonalEdgeStyle;rounded=0;orthogonalLoop=1;jettySize=auto;html=1;exitX=0.5;exitY=1;exitDx=0;exitDy=0;" parent="1" edge="1">
          <mxGeometry relative="1" as="geometry">
            <mxPoint x="320" y="860" as="sourcePoint" />
            <mxPoint x="320" y="1060" as="targetPoint" />
          </mxGeometry>
        </mxCell>
        <mxCell id="jEDZygAeWDUvjjWKRz_K-23" value="null" style="ellipse;whiteSpace=wrap;html=1;aspect=fixed;fillColor=#fff2cc;strokeColor=#d6b656;" parent="1" vertex="1">
          <mxGeometry x="630" y="1200" width="80" height="80" as="geometry" />
        </mxCell>
        <mxCell id="9Qhba7HmXpPYOLtZiQJx-12" style="edgeStyle=orthogonalEdgeStyle;rounded=0;orthogonalLoop=1;jettySize=auto;html=1;exitX=0.5;exitY=1;exitDx=0;exitDy=0;entryX=0.5;entryY=0;entryDx=0;entryDy=0;" edge="1" parent="1" source="9Qhba7HmXpPYOLtZiQJx-1" target="9Qhba7HmXpPYOLtZiQJx-2">
          <mxGeometry relative="1" as="geometry" />
        </mxCell>
        <mxCell id="9Qhba7HmXpPYOLtZiQJx-1" value="逻辑执行计划dag构建" style="rounded=0;whiteSpace=wrap;html=1;" vertex="1" parent="1">
          <mxGeometry x="250" y="300" width="120" height="60" as="geometry" />
        </mxCell>
        <mxCell id="9Qhba7HmXpPYOLtZiQJx-5" style="edgeStyle=orthogonalEdgeStyle;rounded=0;orthogonalLoop=1;jettySize=auto;html=1;" edge="1" parent="1" source="9Qhba7HmXpPYOLtZiQJx-2">
          <mxGeometry relative="1" as="geometry">
            <mxPoint x="670" y="420" as="targetPoint" />
          </mxGeometry>
        </mxCell>
        <mxCell id="9Qhba7HmXpPYOLtZiQJx-6" value="否" style="edgeLabel;html=1;align=center;verticalAlign=middle;resizable=0;points=[];" vertex="1" connectable="0" parent="9Qhba7HmXpPYOLtZiQJx-5">
          <mxGeometry x="-0.0083" relative="1" as="geometry">
            <mxPoint as="offset" />
          </mxGeometry>
        </mxCell>
        <mxCell id="9Qhba7HmXpPYOLtZiQJx-2" value="是否成功" style="rhombus;whiteSpace=wrap;html=1;" vertex="1" parent="1">
          <mxGeometry x="280" y="390" width="80" height="80" as="geometry" />
        </mxCell>
        <mxCell id="9Qhba7HmXpPYOLtZiQJx-7" value="血缘构建算法" style="shape=process;whiteSpace=wrap;html=1;backgroundOutline=1;" vertex="1" parent="1">
          <mxGeometry x="260" y="830" width="120" height="60" as="geometry" />
        </mxCell>
        <mxCell id="9Qhba7HmXpPYOLtZiQJx-15" value="s" style="edgeStyle=orthogonalEdgeStyle;rounded=0;orthogonalLoop=1;jettySize=auto;html=1;exitX=0.5;exitY=1;exitDx=0;exitDy=0;entryX=0.442;entryY=-0.033;entryDx=0;entryDy=0;entryPerimeter=0;" edge="1" parent="1" source="jEDZygAeWDUvjjWKRz_K-1" target="jEDZygAeWDUvjjWKRz_K-2">
          <mxGeometry relative="1" as="geometry" />
        </mxCell>
      </root>
    </mxGraphModel>
  </diagram>
</mxfile>
